<?xml version="1.0" standalone="no"?>
<!DOCTYPE svg PUBLIC "-//W3C//DTD SVG 1.1//EN" "http://www.w3.org/Graphics/SVG/1.1/DTD/svg11.dtd" >
<svg xmlns="http://www.w3.org/2000/svg" xmlns:xlink="http://www.w3.org/1999/xlink" version="1.1">
<metadata></metadata>
<defs>
<font id="paralinesregular" horiz-adv-x="1228" >
<font-face units-per-em="2048" ascent="1638" descent="-410" />
<missing-glyph horiz-adv-x="716" />
<glyph horiz-adv-x="0" />
<glyph horiz-adv-x="682" />
<glyph unicode=" "  horiz-adv-x="716" />
<glyph unicode="&#x09;" horiz-adv-x="716" />
<glyph unicode="&#xa0;" horiz-adv-x="716" />
<glyph unicode="!" horiz-adv-x="468" d="M102 0v197h54v-197h-54zM102 379h54v1071h-54v-1071zM209 0v197h53v-197h-53zM209 379h53v1071h-53v-1071zM313 0v197h54v-197h-54zM313 379h54v1071h-54v-1071z" />
<glyph unicode="&#x22;" />
<glyph unicode="#" />
<glyph unicode="'" />
<glyph unicode="*" />
<glyph unicode="," horiz-adv-x="313" d="M20 12q9 0 13 4q4 6 4 23v86h53v-86q0 -35 -22 -57q-19 -19 -48 -19v49zM123 12q6 0 6 4q10 6 10 23v86h54v-86q0 -35 -25 -57q-19 -19 -45 -19v49zM221 12q8 0 8 4q9 7 9 23v86h55v-86q0 -35 -25 -57q-19 -19 -47 -19v49z" />
<glyph unicode="." horiz-adv-x="309" d="M20 135q0 43 29 80q9 18 23 25v-211q-3 4 -11.5 12t-11.5 14q-29 32 -29 80zM127 2v264q10 2 31 2q16 0 26 -2v-264q-10 -2 -26 -2q-21 0 -31 2zM238 29v211q8 -3 26 -25q25 -41 25 -80q0 -44 -25 -80z" />
<glyph unicode="/" horiz-adv-x="1085" d="M102 0l598 1450h58l-600 -1450h-56zM215 0l598 1450h57l-598 -1450h-57zM330 0l598 1450h55l-598 -1450h-55z" />
<glyph unicode="0" horiz-adv-x="1116" d="M102 457v540q0 142 66 246q63 101 167 155t224 54q115 0 221 -53q108 -56 171 -160t63 -242v-540q0 -145 -64 -246q-63 -102 -167 -156.5t-224 -54.5q-115 0 -221 53q-109 56 -172.5 160.5t-63.5 243.5zM156 457q0 -131 57 -217q56 -90 147.5 -138.5t198.5 -48.5 q128 0 219 58q89 56 137 148t48 198v540q0 99 -48 197q-49 96 -140.5 151.5t-215.5 55.5q-105 0 -197 -47q-95 -49 -150.5 -141t-55.5 -216v-540zM207 457v540q0 113 51 193q49 78 128.5 120t172.5 42q88 0 172 -41q82 -43 131 -125t49 -189v-540q0 -112 -49 -191 q-50 -80 -130 -122t-173 -42q-90 0 -170 41q-84 42 -133 124t-49 190zM258 457q0 -99 43 -166q41 -67 110.5 -102t147.5 -35q77 0 146 34q70 35 111.5 104.5t41.5 164.5v540q0 99 -43 166q-41 65 -109.5 99t-146.5 34q-80 0 -145 -32q-72 -33 -114 -102.5t-42 -164.5v-540z M307 457v540q0 105 67.5 177.5t184.5 72.5t184.5 -72.5t67.5 -177.5v-540q0 -105 -67.5 -178.5t-184.5 -73.5t-184.5 73.5t-67.5 178.5zM360 457q0 -85 51 -142t148 -57q95 0 146 57t51 142v540q0 85 -51 142t-146 57t-147 -57t-52 -142v-540z" />
<glyph unicode="1" horiz-adv-x="460" d="M102 0v1452h52v-1452h-52zM205 0v1452h51v-1452h-51zM307 0v1452h51v-1452h-51z" />
<glyph unicode="2" horiz-adv-x="1071" d="M102 1300q79 56 193.5 104t236.5 48q95 0 178 -39.5t138 -112.5q102 -127 102 -311q0 -136 -90.5 -297.5t-208.5 -279.5l-71 -72l-95 -88h484v-51h-854v51l360 336q89 95 157 211t68 190q0 91 -44.5 152t-123.5 61q-112 0 -227 -69q-44 -26 -51 -33l-29 41q0 4 51 33 q130 77 256 77q111 0 166 -88q54 -73 54 -174q0 -87 -74.5 -214t-169.5 -220q-103 -104 -318 -303h76q15 14 44 41q199 185 267.5 260t141.5 197q82 134 82 239q0 132 -72.5 221.5t-196.5 89.5q-134 0 -301 -94l-41 -24l-26 37q9 13 63 45q152 90 305 90q147 0 236 -115 q82 -107 82 -250q0 -117 -84.5 -262t-185.5 -246l-240 -229h70l208 194q92 92 179 236q104 177 104 307q0 160 -92 283q-51 63 -123 97t-154 34q-160 0 -350 -111l-51 -28zM115 0v47h854v-47h-854zM115 102v48h854v-48h-854zM133 1262zM182 1177q2 1 8 5l3 -2z" />
<glyph unicode="3" horiz-adv-x="1146" d="M102 432q0 -96 39 -199q42 -110 129.5 -170.5t200.5 -62.5h201q115 0 202 61t130 172q40 99 40 199v2q0 33 -8 82q-17 125 -86 211q38 51 54 98q40 92 40 195v2q0 100 -40 199q-43 111 -130 172t-202 61h-201q-113 -2 -200 -63t-130 -170q-39 -103 -39 -199h56 q0 91 35 178q37 94 110.5 146.5t169.5 52.5h199q96 0 168.5 -52t111.5 -147q37 -88 37 -178t-37 -176q-34 -87 -75 -119q-44 -44 -97 -61q-64 -23 -108 -23h-119v-53h119q23 0 43 -10q16 -11 30 -45.5t19 -67.5l4 -35q0 -1 -0.5 -5t-1.5 -12.5t-2 -17.5q-3 -25 -19 -63 q-13 -35 -29.5 -47.5t-43.5 -12.5h-201q-52 0 -74 60q-18 44 -18 100h-55q0 -36 7 -71t23 -69t46.5 -54.5t72.5 -20.5h199q87 0 127 94q9 25 18 64l6 55v2l-4 41q-11 83 -51 127q15 2 53 21q17 -28 29 -52q29 -72 29 -139q0 -68 -29 -137q-52 -131 -178 -131h-199 q-127 0 -176 129q-29 66 -29 139h-55q0 -79 31 -158q66 -163 227 -163h201q165 0 229 163q33 87 33 158q0 18 -6 64q-13 75 -58 153l41 35q26 -37 41 -76q37 -86 37 -176t-37 -178q-39 -95 -111.5 -147t-168.5 -52h-199q-94 0 -170 54q-71 50 -108 138t-37 185h-56z M213 1022h55q0 73 29 139q49 129 176 129h199q126 0 178 -131q29 -72 29 -137q0 -67 -29 -139q-11 -26 -32 -55.5t-38 -39.5q-46 -34 -108 -34h-119v-56h119q58 0 114 29q26 13 48 35q32 28 67 102q33 87 33 158t-33 158q-64 163 -229 163h-201q-79 0 -137 -40 q-56 -42 -88.5 -120.5t-32.5 -160.5zM324 1020h55q0 56 18 100q22 60 74 60h201q21 0 43 -11q16 -11 30 -45t19 -67l4 -35q0 -1 -0.5 -5t-1.5 -12.5t-2 -17.5q-3 -25 -19 -63q-13 -35 -30 -48.5t-43 -13.5h-119v-53h119q56 0 96 43q13 13 30 53t21 74l4 41v2l-6 55l-18 64 q-40 94 -127 94h-199q-41 0 -72 -21t-47 -55.5t-23 -69t-7 -69.5z" />
<glyph unicode="4" horiz-adv-x="1081" d="M102 301h510v-301h52v1450h-52l-510 -895v-53h510v-49h-510v-52h510v-49h-510v-51zM162 555l450 791v-107l-389 -684h-61zM283 555l329 578v-103l-270 -475h-59zM401 555l211 373v-373h-211zM715 0h51v1450h-51v-1450zM815 0h51v301h113v51h-113v49h113v52h-113v49h113 v53h-113v895h-51v-1450z" />
<glyph unicode="5" horiz-adv-x="1116" d="M102 242q66 -112 179.5 -177t242.5 -65q131 0 246 68q113 66 178.5 178.5t65.5 242.5q0 131 -66 248q-66 114 -178.5 179t-245.5 65q-48 0 -84 -4v237h527v50h-576v-529h49q27 6 84 6q104 0 178 -74t74 -178t-73.5 -176.5t-178.5 -72.5q-67 0 -126 33t-91 89l-41 -24 q38 -68 108 -108t150 -40q81 0 152 41q68 40 108.5 108.5t40.5 149.5t-41 152q-42 69 -111 109.5t-149 40.5q-49 0 -84 -7v47q35 5 84 5q92 0 174 -48q79 -48 125.5 -127.5t46.5 -171.5q0 -95 -47 -172q-48 -80 -127 -127t-172 -47q-91 0 -171.5 46.5t-127.5 125.5l-41 -26 q54 -91 145 -143t195 -52q107 0 199 53q91 54 144 145.5t53 196.5q0 108 -54 199t-145.5 144t-196.5 53q-48 0 -84 -4v47q78 4 84 4q116 0 221 -60q102 -61 161 -162t59 -221q0 -114 -60 -219q-61 -102 -162 -161.5t-219 -59.5q-115 0 -217 58.5t-164 158.5zM203 735h49v670 h715v49h-764v-719zM297 735h49v576h621v47h-670v-623z" />
<glyph unicode="6" horiz-adv-x="1087" d="M102 434q3 -117 62 -217q61 -101 161.5 -159t217.5 -58q120 0 223 59q102 61 160.5 162t58.5 221q0 117 -59 220q-61 101 -162 160t-221 59q-106 0 -193 -43v178q0 61 37 113.5t94 72.5q38 10 64 10q45 0 88 -18q47 -21 79.5 -67t32.5 -113h50q0 87 -51.5 150.5 t-129.5 88.5q-30 9 -69 9q-45 0 -82 -15q-72 -26 -117 -89t-45 -138v-582q1 -99 72 -169t170 -70q100 0 170.5 71.5t70.5 171.5q0 98 -71 169t-170 71q-56 0 -106.5 -25.5t-86.5 -70.5v82q84 69 193 69q81 0 149 -39q68 -40 108 -108.5t40 -147.5q0 -82 -39 -147 q-40 -69 -109.5 -110.5t-148.5 -41.5q-80 0 -148 41q-69 41 -109 110t-40 148v572q0 78 41 149q40 68 108.5 108t147.5 40q81 0 149 -39q68 -40 108 -109.5t40 -148.5v-2h49v2q0 94 -47 174q-48 79 -127.5 125.5t-171.5 46.5q-95 0 -172 -47q-80 -48 -127 -127t-47 -172 v-578h2q3 -96 49 -172q46 -79 124.5 -124.5t170.5 -45.5q94 0 174 47t126 127.5t46 173.5q0 97 -45 174q-46 78 -127 124t-174 46q-104 0 -193 -59v55q88 49 193 49q110 0 196 -51q90 -53 142.5 -143t52.5 -195q0 -107 -53 -196q-55 -92 -144 -144.5t-194 -52.5 q-108 0 -197 53q-91 54 -142.5 144t-51.5 196v572q0 107 53 196q55 90 145 142.5t195 52.5q107 0 196 -53q90 -54 141.5 -143.5t51.5 -194.5v-2h51v2q0 118 -59 221q-60 102 -161.5 160.5t-219.5 58.5q-148 0 -264 -87.5t-158 -225.5q-13 -35 -17 -57.5t-4 -69.5v-580z M350 442q0 78 57 135.5t136 57.5t136.5 -57.5t57.5 -135.5q0 -81 -57 -137.5t-137 -56.5t-136.5 56.5t-56.5 137.5z" />
<glyph unicode="7" horiz-adv-x="1054" d="M102 1188h580l-285 -1188h54l286 1188h54l-285 -1188h53l287 1188h53l-287 -1188h54l286 1188v53h-850v-53zM102 1292h850v54h-850v-54zM102 1399h850v51h-850v-51z" />
<glyph unicode="8" horiz-adv-x="993" d="M102 395q0 103 47 188.5t132 141.5q-84 56 -131.5 141t-47.5 185q0 165 116 281t278 116q164 0 279.5 -115.5t115.5 -281.5q0 -96 -47 -182.5t-131 -143.5q82 -57 130 -144t48 -186q0 -165 -115 -280t-280 -115q-162 0 -278 115t-116 280zM141 395q0 -147 104.5 -249.5 t250.5 -102.5q145 0 248.5 102.5t103.5 249.5q0 140 -97 242t-237 113h-18q-129 0 -220.5 87.5t-91.5 213.5q0 128 92 221.5t220 93.5q127 0 219 -93.5t92 -221.5q0 -92 -52.5 -168.5t-136.5 -110.5q6 -3 23 -9.5t25 -12.5q86 47 134 127.5t48 173.5q0 146 -103.5 248 t-248.5 102q-146 0 -250.5 -102.5t-104.5 -247.5q0 -141 103 -242.5t248 -106.5h4q128 0 219.5 -89.5t91.5 -217.5q0 -129 -91.5 -220t-219.5 -91q-129 0 -220.5 91t-91.5 220q0 95 54 173t139 114q-27 3 -53 16q-82 -45 -132.5 -126.5t-50.5 -176.5zM227 395 q0 -109 78.5 -187.5t190.5 -78.5q109 0 188.5 78.5t79.5 187.5q0 108 -79.5 186t-188.5 78h-4q-110 0 -187.5 -78t-77.5 -186zM227 1051q0 -108 78.5 -184t190.5 -76q109 0 188.5 76.5t79.5 183.5q0 112 -79.5 192t-188.5 80q-112 0 -190.5 -79.5t-78.5 -192.5zM281 395 q0 89 63 153t152 64t154 -64t65 -153t-65 -155t-154 -66t-152 65.5t-63 155.5zM281 1051q0 93 62.5 157t152.5 64t154.5 -64t64.5 -157q0 -86 -65 -148.5t-154 -62.5t-152 62t-63 149zM324 395q0 -71 51 -123.5t121 -52.5t120 52.5t50 123.5q0 72 -50 124t-120 52t-121 -52 t-51 -124zM324 1051q0 -68 51 -118t121 -50t120 50t50 118q0 72 -50 123t-120 51q-71 0 -121.5 -51t-50.5 -123z" />
<glyph unicode="9" horiz-adv-x="1085" d="M102 1008q0 -115 60 -220q61 -102 162 -161.5t219 -59.5q99 0 192 43v-610h49v1010q-1 100 -72 169.5t-169 69.5q-100 0 -171 -70.5t-71 -170.5t71 -171t171 -71q116 0 192 96v-80q-89 -71 -192 -71q-82 0 -150 41q-68 40 -107.5 108.5t-39.5 147.5q0 78 41 149 q40 69 107.5 108.5t148.5 39.5t149 -39q68 -40 108 -109.5t40 -148.5v-1008h49v1012q-3 94 -49 170q-48 79 -127 124.5t-170 45.5q-97 0 -174 -45q-80 -46 -126 -126t-46 -173q0 -95 47 -172q46 -80 126 -127t173 -47q109 0 192 59v-55q-95 -50 -192 -50q-106 0 -197 54 t-142.5 143.5t-51.5 194.5q0 107 53 196q53 90 143 141.5t195 51.5q110 0 196 -51q90 -53 142.5 -143t52.5 -195v-1008h47q2 113 2 504q0 395 -2 508q0 116 -59 219q-63 100 -163 158.5t-216 58.5t-219 -59q-102 -61 -162 -162.5t-60 -218.5zM350 1008q0 78 57 135t136 57 q78 0 135 -56t57 -134v-6q0 -78 -57 -134.5t-135 -56.5q-79 0 -136 57.5t-57 137.5z" />
<glyph unicode=":" />
<glyph unicode=";" />
<glyph unicode="?" horiz-adv-x="980" d="M102 1354l25 -45q296 148 492 55q54 -26 96 -68q153 -153 98 -340q-31 -117 -137 -223l-14 -14q-30 -30 -45.5 -47.5t-40.5 -55.5t-37.5 -76.5t-22.5 -100t-10 -136.5h51q0 86 10.5 148t34.5 106.5t42 66.5t54 58q9 6 15 12q115 115 151 250q11 41 13.5 83.5t-6 94 t-39 106.5t-80.5 105q-51 51 -113.5 79.5t-121 35t-120.5 0.5t-110 -19.5t-92.5 -31t-64.5 -28t-28 -15.5zM154 1264l26 -47q258 129 409 43q27 -16 50 -39q109 -106 74 -236q-26 -91 -113 -178l-12 -12q-35 -35 -53 -55t-48.5 -66t-46 -91t-28.5 -118.5t-13 -161.5h54 q0 81 11.5 148.5t25 109t41.5 83.5t44.5 60.5t49.5 51.5l14 14q94 94 123 201q44 158 -84 289q-121 121 -338 73q-87 -20 -186 -69zM207 1171l26 -45l9 4q8 4 22 10.5t33 14t41.5 14t46.5 12t49 6.5t48 -1.5t45 -12.5t38 -26q34 -34 44.5 -65.5t0.5 -69.5q-18 -65 -84 -131 l-12 -13q-28 -28 -42 -42.5t-41 -48t-42.5 -61t-36 -73.5t-31 -92.5t-18.5 -111t-8 -136.5h51q0 94 14.5 173.5t31.5 128t51 98.5t52.5 70.5t55.5 57.5l12 13q77 77 99 155q27 101 -60 185q-37 37 -91.5 49.5t-104.5 4.5t-97 -23.5t-73.5 -28.5t-28.5 -15zM295 0h51v197h-51 v-197zM399 0h54v197h-54v-197zM506 0h51v197h-51v-197z" />
<glyph unicode="A" horiz-adv-x="1286" d="M102 0h50l208 721h371l14 -49h-350l-192 -672h47l180 627h326l14 -49h-303l-168 -578h51l154 530h282l154 -530h47l-416 1448h-49zM373 770l172 594l26 -86l-149 -508h-49zM471 770l123 424l27 -88l-99 -336h-51zM571 770l72 252l72 -256zM621 1448l415 -1448h49 l-415 1448h-49zM719 1448l416 -1448h49l-416 1448h-49z" />
<glyph unicode="B" horiz-adv-x="1079" d="M102 0v1448h449q132 0 233 -62t152 -174q41 -86 41 -184q0 -30 -4 -61q-16 -131 -92 -222q22 -25 51 -83q44 -98 44 -213q0 -14 -1 -29q-9 -130 -76 -236q-59 -89 -149.5 -136.5t-202.5 -47.5h-445zM154 51h393q106 0 186 45q70 39 123 117q58 88 68 209q1 14 1 28 q0 104 -40 191q-16 37 -39 68q-11 -11 -39 -31q21 -33 24 -43q44 -84 44 -185q-1 -5 -1 -11q-2 -107 -53 -191q-45 -71 -115 -109.5t-157 -38.5h-346v1248h348q110 0 191.5 -56.5t115.5 -154.5q18 -56 18 -112q0 -47 -13 -95q-29 -104 -109 -166q-79 -66 -228 -66h-221v52 h221q60 0 109 13.5t63.5 22.5t20.5 15l2 2q69 52 94 143q10 39 10 78q0 49 -16 96q-24 77 -88 125q-68 51 -170 51h-297v-1144h102h193q151 0 229 122q44 74 47 168q0 96 -39 170q-15 30 -24 39q-8 -4 -24.5 -11.5t-22.5 -10.5q49 -57 59 -141q2 -19 3 -38q0 -63 -27 -120 q-28 -61 -80.5 -95t-118.5 -34h-246v450h51l193 -2q166 0 287 121q74 87 86 203q4 28 4 55q0 86 -37 164q-40 90 -123 145q-91 60 -215 60h-397v-1346zM305 799v450h246q106 0 168 -71q57 -63 57 -154q0 -94 -57 -154q-62 -71 -168 -71h-246zM356 252h195q108 0 154 100 q20 44 20 95q-1 17 -3 34q-8 71 -48 117l-12 14q-50 -12 -113 -12h-193v-348zM356 850h195q81 0 131 53q43 49 43 121q0 83 -52 128.5t-122 45.5h-195v-348z" />
<glyph unicode="C" horiz-adv-x="1079" d="M102 444v576q0 127 60 229q59 97 159 150t220 53q174 0 299 -106q137 -125 137 -330v-21h-51v21q0 181 -121 287q-49 47 -119 72.5t-145 25.5q-107 0 -193 -45q-90 -45 -142 -134.5t-52 -205.5v-565q0 -122 53 -211q53 -88 141 -135.5t193 -47.5q102 0 188 45 q91 46 144 135.5t53 213.5v22h51v-22q0 -211 -137 -336q-116 -113 -299 -113q-118 0 -219 55q-102 55 -161 155.5t-59 231.5zM209 444v572q0 146 88.5 239t243.5 93q92 0 166 -39q77 -39 121 -115.5t44 -177.5v-25h-55v25q0 121 -75 199.5t-201 78.5q-128 0 -203.5 -78.5 t-75.5 -199.5v-563q0 -127 75.5 -208t203.5 -81q127 0 202.5 81.5t75.5 207.5v20h53v-22q0 -109 -45 -183q-44 -74 -119 -114.5t-167 -40.5q-149 0 -236.5 90.5t-95.5 240.5zM315 444v576q0 97 59.5 158t166.5 61q101 0 162 -58.5t61 -164.5v-21h-51v21q0 79 -41.5 125.5 t-130.5 46.5q-88 0 -131 -47.5t-43 -124.5v-563q0 -79 43.5 -129t130.5 -50q77 0 124.5 43.5t47.5 135.5v20h51v-22q0 -108 -61.5 -170t-161.5 -62q-108 0 -166 61t-60 164z" />
<glyph unicode="D" horiz-adv-x="1056" d="M102 4v1450h414q103 0 189 -62.5t143 -177.5q106 -202 106 -501q0 -269 -106 -471q-57 -115 -143 -176.5t-189 -61.5h-414zM154 55h362q182 0 287 209q98 186 98 449q0 199 -45 350q-46 160 -134.5 250t-205.5 90h-362v-1348zM207 102v1246h309q167 0 256 -209 q80 -174 80 -430q0 -154 -39 -287q-41 -146 -117 -233t-176 -87h-313zM260 154h256q129 0 209 176q76 183 76 379q0 158 -35 295q-36 137 -100.5 214.5t-149.5 77.5h-256v-1142zM311 205v1042h205q117 0 182 -176q52 -155 52 -362q0 -122 -27 -236q-27 -122 -80 -195 t-123 -73h-209zM360 256h156q84 0 133 141q49 140 49 312q0 207 -49 344q-53 141 -133 141h-156v-938z" />
<glyph unicode="E" horiz-adv-x="1073" d="M102 0v1450h869v-51h-817v-576h53v523h764v-52h-711v-471h51v418h660v-51h-609v-367h609v-53h-817v-719h817v-51h-869zM207 104v613h764v-51h-711v-508h711v-54h-764zM311 209v405h660v-53h-609v-301h609v-51h-660z" />
<glyph unicode="F" horiz-adv-x="999" d="M102 0h54v1401h741v51h-795v-1452zM209 0h51v1294h637v54h-688v-1348zM315 0h52v555h358v51h-358v53h358v52h-358v53h358v51h-358v375h530v53h-582v-1243z" />
<glyph unicode="G" horiz-adv-x="1118" d="M102 453v542q0 124 62 230q61 106 164.5 166.5t230.5 60.5q120 0 227 -61q107 -62 168.5 -167t61.5 -229h-53q0 108 -54 205q-56 93 -148.5 146t-201.5 53q-112 0 -205 -53.5t-147 -147.5q-55 -82 -55 -203v-540q0 -107 55 -201q57 -96 147 -149.5t205 -53.5 q106 0 200 55.5t148 149.5q56 83 56 199v299h-203l-131 4v49h387v-352q0 -120 -62.5 -225t-169.5 -167q-92 -63 -225 -63q-123 0 -227 60t-164 165q-66 104 -66 228zM205 453v542q0 97 49 179q48 81 129 128.5t176 47.5q96 0 176 -47q81 -50 127.5 -131.5t46.5 -176.5h-47 q0 81 -41 152q-42 70 -111.5 110.5t-150.5 40.5q-85 0 -151 -38q-70 -40 -111 -110.5t-41 -154.5v-540q0 -82 41 -150q42 -70 111.5 -110.5t150.5 -40.5t152 41q70 42 110.5 110.5t40.5 149.5v198h-233v52h284l-4 -250q0 -96 -47 -176q-48 -83 -127.5 -130t-175.5 -47 q-94 0 -176 48q-82 46 -130 126.5t-48 176.5zM305 453v542q0 68 35 127t93.5 93t125.5 34q66 0 125 -35q58 -36 91.5 -94t33.5 -125h-53q0 84 -58.5 142.5t-138.5 58.5q-82 0 -141.5 -58.5t-59.5 -142.5v-540q0 -79 60.5 -139t140.5 -60t140.5 59t60.5 140v96h-131v51h180 v-147q0 -67 -33 -123q-34 -59 -92 -93t-125 -34q-103 0 -176 72t-78 176z" />
<glyph unicode="H" horiz-adv-x="1110" d="M102 0v1450h54v-1450h-54zM207 0v1450h55v-1450h-55zM313 0v1450h54v-637h376v637h52v-690h-428v-55h479v745h55v-797h-534v-51h587v848h54v-1450h-54v549h-53v-549h-55v549h-51v-549h-52v549h-376v-549h-54z" />
<glyph unicode="I" horiz-adv-x="464" d="M102 0h52v1452h-52v-1452zM207 0h53v1452h-53v-1452zM311 0h51v1452h-51v-1452z" />
<glyph unicode="J" horiz-adv-x="1118" d="M102 473l52 4q3 -196 129 -319q116 -107 276 -107q164 0 277 107q127 121 127 319v975h53v-979q0 -217 -146 -354q-122 -119 -311 -119t-311 119q-146 140 -146 354zM205 477h51q7 -152 89 -235.5t214 -83.5t214 83.5t89 235.5v975h51l-2 -907l2 -68q-6 -175 -104 -275 t-250 -100q-139 0 -240 93q-108 95 -114 282zM311 477h51q0 -102 54 -159.5t143 -57.5q92 0 145.5 56.5t53.5 160.5v975h51v-975q-6 -126 -75 -197t-175 -71q-101 0 -170 63q-78 72 -78 205z" />
<glyph unicode="K" horiz-adv-x="1116" d="M102 0v1458h54v-545l53 58v487h53v-432l51 55v377h54v-317l299 317h67l-577 -624v-834h-54zM209 0v819l18 21l574 618h73l-612 -659v-799h-53zM313 0v782l41 41l584 635h72l-643 -696v-60l647 -702h-70l-577 627v-76l503 -551h-69l-434 467v-76l360 -391h-70l-290 315 v-315h-54z" />
<glyph unicode="L" horiz-adv-x="1015" d="M102 0v1452h52v-1452h-52zM207 0v1452h51v-1452h-51zM311 0v1452h54v-1192h548v-51h-548v-51h548v-56h-548v-51h548v-51h-602z" />
<glyph unicode="M" horiz-adv-x="1337" d="M102 1448l2 -1448h54l-4 1448h-52zM207 1448l2 -1448h53l-4 1448h-51zM311 1448l2 -1448h52v571l167 -571h58l2 4l104 363l273 948q4 12 4 14l2 -188l-250 -865l-53 -182l-27 -94h53l2 6l54 180l221 768v-188l-193 -670l-28 -96h53l2 6l166 574v-580h51v1448h-72 l-288 -1002l-301 1002h-54zM365 752v174l221 -752l-25 -90zM365 1102v172l274 -920l-27 -90zM1079 0h51v1448h-51v-1448zM1184 0h51v1448h-51v-1448z" />
<glyph unicode="N" horiz-adv-x="1122" d="M102 0v1456h52v-1456h-52zM205 0v1456h53v-1456h-53zM311 0v1456h56l387 -838v836h55v-1454h-55l-387 831v-831h-56zM367 956l387 -835v129l-387 833v-127zM367 1202l387 -829v123l-387 833v-127zM860 0v1454h55v-1454h-55zM967 0v1454h53v-1454h-53z" />
<glyph unicode="O" horiz-adv-x="1120" d="M102 481v488q0 229 144 358q126 123 315 123q187 0 316 -123q141 -132 141 -358v-494q0 -224 -141 -356q-122 -119 -316 -119q-196 0 -315 119q-144 135 -144 362zM154 481q0 -137 57 -233q55 -95 150.5 -146t199.5 -51q110 0 199 51q95 51 151 149.5t56 229.5v488 q0 132 -56 235q-55 96 -148 145.5t-202 49.5q-105 0 -197 -50t-151 -143q-59 -103 -59 -237v-488zM205 481v488q0 117 49 202q47 84 127 128t180 44q141 0 244 -92q110 -101 110 -282v-494q0 -116 -47 -199q-49 -85 -129 -130.5t-178 -45.5t-178 45q-83 45 -130.5 133 t-47.5 203zM258 481q0 -152 85 -239.5t218 -87.5q132 0 216.5 87.5t84.5 239.5v488q0 151 -82.5 237t-218.5 86q-133 0 -218 -87t-85 -236v-488zM311 481v488q0 130 69 201t181 71q105 0 174 -63q78 -78 78 -209v-494q0 -123 -70.5 -196.5t-181.5 -73.5q-108 0 -172 67 q-78 72 -78 209zM362 481q0 -108 53 -165.5t146 -57.5q87 0 144 60t57 163v488q0 109 -64 170q-58 49 -137 49q-89 0 -144 -58t-55 -161v-488z" />
<glyph unicode="P" horiz-adv-x="1169" d="M102 0v987q3 127 70 234t177 169t237 62q130 0 241 -63q112 -65 176 -175.5t64 -242.5q0 -134 -63 -242q-65 -113 -176.5 -178.5t-241.5 -65.5q-121 0 -221 56v-541h-54v975q1 110 81.5 187t193.5 77q71 0 135 -37t100.5 -98.5t36.5 -132.5q0 -73 -37 -137 q-37 -63 -100 -100.5t-135 -37.5q-68 0 -126.5 29t-94.5 82v-78q92 -86 221 -86q88 0 162 45t118.5 120.5t44.5 162.5q0 86 -43 159q-45 74 -120.5 118t-161.5 44q-89 0 -162 -43q-76 -45 -121 -119t-45 -159v-971h-51v985q3 97 57 182q53 84 138.5 132.5t183.5 48.5 q102 0 187 -50t140 -139q50 -95 50 -188q0 -103 -52 -191q-51 -88 -139 -140t-186 -52q-121 0 -221 74v-64q104 -61 221 -61q113 0 213 59q99 59 158 160t59 215q0 115 -58 213q-59 99 -159.5 158t-212.5 59q-115 0 -213 -58q-99 -59 -158 -159.5t-59 -212.5v-971h-54z M365 967q0 -88 65.5 -152.5t155.5 -64.5q88 0 152.5 65.5t64.5 155.5q0 91 -63 154t-154 63q-90 0 -155.5 -64.5t-65.5 -152.5v-4z" />
<glyph unicode="Q" horiz-adv-x="1212" d="M102 475v500q0 219 142 352q125 119 309 119q186 0 311 -119q137 -128 140 -344v-514q0 -83 -21 -154l127 -315h-55l-99 246q-2 -4 -12 -23t-16 -28l78 -195h-56l-59 147l-21 -20l-4 -4l-14 -14l45 -109h-55l-31 78l-25 -17q-106 -61 -233 -61q-181 0 -309 119 q-142 136 -142 356zM154 475q0 -105 35 -188.5t92.5 -133.5t127 -76t144.5 -26q118 0 215 60q24 14 43 30q25 21 39 37q16 19 35 47q69 101 69 250v498q0 105 -35 188.5t-93.5 133.5t-128 76t-144.5 26t-144.5 -26t-127 -76t-92.5 -133.5t-35 -188.5v-498zM205 475v500 q0 176 108 278q99 93 240 93q143 0 242 -93q102 -99 108 -270v-514q-3 -106 -43 -184q-11 -25 -33 -54q-16 -23 -32 -36l-4 -5q-9 -8 -43 -32q-88 -56 -195 -56q-141 0 -240 93q-108 99 -108 280zM256 475q0 -155 92 -244q80 -77 205 -77q95 0 174 53q21 14 31 24l10 11 q84 84 84 233v498q0 156 -94 244q-83 77 -205 77t-205 -77q-92 -89 -92 -244v-498zM307 475v500q0 132 76 205q69 63 170 63q104 0 170 -63q75 -69 78 -197v-514q-3 -115 -53 -176q-8 -10 -23 -25q-8 -8 -16 -14q-65 -49 -156 -49q-101 0 -170 63q-76 73 -76 207zM358 475 q0 -113 60 -170q52 -49 135 -49q86 0 135 49q62 56 62 170v498q0 112 -62 168q-51 51 -135 51q-81 0 -135 -51q-60 -57 -60 -168v-498z" />
<glyph unicode="R" horiz-adv-x="1134" d="M102 0v1450h424q126 0 230.5 -55.5t165.5 -157.5q61 -104 61 -244v-43q0 -214 -147 -340q-63 -51 -138 -82l334 -528h-61l-447 709h-157v-52h129l411 -657h-59l-383 602h-98v-51h69l348 -551h-63l-313 500h-41v-500h-52v1241h211q47 0 90 -14.5t79 -43.5t57.5 -78 t21.5 -112l-2 -43q0 -97 -50.5 -157.5t-139.5 -79.5l28 -45q97 21 157 95.5t60 186.5v43q0 131 -81.5 215t-219.5 84h-264v-1292h-53v1343h317q98 0 178 -42t127 -119q48 -82 48 -189v-43q0 -126 -65.5 -211.5t-174.5 -117.5l31 -46q123 43 191.5 139.5t68.5 235.5v43 q0 126 -55 219.5t-154 141.5q-91 45 -195 45h-368v-1399h-56zM367 760h153q101 0 150 52.5t49 137.5l2 43q0 99 -53.5 147t-141.5 48h-159v-428z" />
<glyph unicode="S" horiz-adv-x="1175" d="M102 1020q0 99 41 197q43 110 130 171.5t200 61.5h201q112 0 200 -61q83 -59 126.5 -159t43.5 -210h-55q0 96 -38.5 184.5t-106.5 138.5q-79 52 -172 52h-199q-93 0 -166 -52t-110 -145q-39 -79 -39 -178q0 -101 39 -178q37 -97 108 -149t168 -52h229q85 0 123 -92 q27 -56 27 -119q0 -54 -27 -117q-35 -96 -123 -96h-204q-83 0 -123 94q-25 67 -25 119l56 2q0 -55 20 -102q13 -34 29.5 -46t46.5 -12h200q27 0 43 13q18 13 35 53t17 92q0 58 -21 98q-18 36 -31.5 47t-42.5 11h-229q-113 0 -200 62.5t-130 174.5q-41 90 -41 197zM129 430 h55q0 -91 37 -178q38 -94 111.5 -145.5t169.5 -51.5h200q94 0 167 52t110 145q39 79 39 178q0 102 -39 176q-37 97 -108.5 149t-168.5 52h-229q-86 0 -123 94q-26 51 -26 115q0 31 9.5 70.5t16.5 52.5q40 94 123 94h199q76 0 113.5 -63t37.5 -154h-55q0 46 -20 102 q-22 60 -74 60h-201q-52 0 -74 -60q-20 -39 -20 -98q0 -44 18 -90q27 -72 76 -72h229q113 0 200 -60.5t130 -170.5q41 -95 41 -197q0 -101 -41 -199q-43 -110 -130 -170.5t-200 -60.5h-200q-116 0 -202.5 60.5t-129.5 170.5q-41 98 -41 199zM213 1020q0 73 33 158 q64 161 227 161h201q80 0 140 -42t89 -119q31 -91 31 -158h-55q0 72 -31 135q-47 133 -176 133h-199q-123 0 -176 -133q-29 -59 -29 -135q0 -41 9.5 -83t31 -86t64 -71.5t100.5 -27.5h229q164 0 228 -166q16 -35 24.5 -81.5t8.5 -74.5q0 -76 -33 -158q-64 -166 -228 -166 h-200q-166 3 -230 166q-32 79 -32 158h55q0 -78 29 -137q52 -131 178 -131h200q125 0 177 131q28 60 28 137q0 79 -28 139q-53 127 -177 127h-229q-163 0 -227 166q-33 79 -33 158z" />
<glyph unicode="T" horiz-adv-x="1208" d="M102 1192v51h1004v-51h-369v-1192h-51v1192h-53v-1192h-51v1192h-54v-1192h-51v1192h-375zM102 1296v54h1004v-54h-1004zM102 1401v51h1004v-51h-1004z" />
<glyph unicode="U" horiz-adv-x="1134" d="M102 483v967h54v-967q0 -130 59 -233q57 -97 150.5 -148t199.5 -51q107 0 202.5 51t154.5 144q55 101 55 237v967h55v-969q0 -222 -147 -360q-134 -121 -320 -121q-184 0 -317 121q-146 137 -146 362zM209 483v967h51v-967q0 -151 86 -239t219 -88q134 0 219.5 87.5 t85.5 239.5v967h56v-969q0 -115 -47 -198q-49 -86 -131.5 -132.5t-182.5 -46.5q-141 0 -248 93q-108 105 -108 286zM313 483v967h52v-967q0 -106 55 -164.5t145 -58.5q94 0 147.5 57.5t53.5 165.5v967h53v-969q0 -136 -80 -207q-65 -65 -174 -65q-97 0 -174 65 q-78 78 -78 209z" />
<glyph unicode="V" horiz-adv-x="1142" d="M102 1452h54l344 -1452h-54zM209 1452h51l344 -1452h-53zM311 1452h56l208 -895l205 895h51l-227 -1006l8 -47l19 -67l256 1120h47l-279 -1231l7 -24l20 -91l307 1346h51l-329 -1452h-52l-24 86l-4 25l-21 90l-6 22l-16 70l-13 43l-12 67l-12 43z" />
<glyph unicode="W" horiz-adv-x="1343" d="M102 0v1450h54v-1450h-54zM207 0v1450h51v-1450h-51zM313 0v1450h52v-657l153 436h55l-208 -596v-158l264 754h55l-319 -914v-159l374 1073h90l152 -436v657h51v-1450h-51l-309 879l-305 -879h-54zM700 961l281 -805v159l-250 725zM756 1118l225 -643v158l-195 565z M1085 0v1450h52v-1450h-52zM1190 0v1450h51v-1450h-51z" />
<glyph unicode="X" horiz-adv-x="1189" d="M102 1452h60l313 -672l29 64l-285 608h62l256 -545l28 64l-227 481h61l195 -418l199 418h57l-227 -481l-86 -191l-371 -780h-57l337 721zM225 0l340 721l29 59l57 127l256 545h62l-285 -608l-33 -64l-364 -780h-62zM344 0l340 721l29 59l313 672h61l-346 -731l338 -721 h-57l-309 655l-29 -63l279 -592h-60l-252 532l-28 -65l221 -467h-60l-190 403l-188 -403h-62z" />
<glyph unicode="Y" horiz-adv-x="1116" d="M102 1450l334 -756v-694h53v711l-329 739h-58zM217 1450l324 -735v-715h53v729l-320 721h-57zM332 1450l313 -713v-737h53v735l316 715h-58l-284 -641l-27 63l254 578h-57l-226 -514l-28 65l196 449h-57l-168 -385l-170 385h-57z" />
<glyph unicode="Z" horiz-adv-x="1126" d="M102 0v51h922v-51h-922zM102 106v52h922v-52h-922zM102 209v51l615 934h-615v51h922v-51l-616 -934h616v-51h-922zM102 1294v54h922v-54h-922zM102 1401v51h922v-51h-922zM164 260h59l617 934h-62zM285 260h61l617 934h-62z" />
<glyph unicode="\" horiz-adv-x="1087" d="M102 1450l598 -1450h58l-598 1450h-58zM217 1450l598 -1450h57l-600 1450h-55zM330 1450l598 -1450h57l-598 1450h-57z" />
<glyph unicode="^" />
<glyph unicode="_" />
<glyph unicode="a" horiz-adv-x="1286" d="M102 0h50l208 721h371l14 -49h-350l-192 -672h47l180 627h326l14 -49h-303l-168 -578h51l154 530h282l154 -530h47l-416 1448h-49zM373 770l172 594l26 -86l-149 -508h-49zM471 770l123 424l27 -88l-99 -336h-51zM571 770l72 252l72 -256zM621 1448l415 -1448h49 l-415 1448h-49zM719 1448l416 -1448h49l-416 1448h-49z" />
<glyph unicode="b" horiz-adv-x="1079" d="M102 0v1448h449q132 0 233 -62t152 -174q41 -86 41 -184q0 -30 -4 -61q-16 -131 -92 -222q22 -25 51 -83q44 -98 44 -213q0 -14 -1 -29q-9 -130 -76 -236q-59 -89 -149.5 -136.5t-202.5 -47.5h-445zM154 51h393q106 0 186 45q70 39 123 117q58 88 68 209q1 14 1 28 q0 104 -40 191q-16 37 -39 68q-11 -11 -39 -31q21 -33 24 -43q44 -84 44 -185q-1 -5 -1 -11q-2 -107 -53 -191q-45 -71 -115 -109.5t-157 -38.5h-346v1248h348q110 0 191.5 -56.5t115.5 -154.5q18 -56 18 -112q0 -47 -13 -95q-29 -104 -109 -166q-79 -66 -228 -66h-221v52 h221q60 0 109 13.5t63.5 22.5t20.5 15l2 2q69 52 94 143q10 39 10 78q0 49 -16 96q-24 77 -88 125q-68 51 -170 51h-297v-1144h102h193q151 0 229 122q44 74 47 168q0 96 -39 170q-15 30 -24 39q-8 -4 -24.5 -11.5t-22.5 -10.5q49 -57 59 -141q2 -19 3 -38q0 -63 -27 -120 q-28 -61 -80.5 -95t-118.5 -34h-246v450h51l193 -2q166 0 287 121q74 87 86 203q4 28 4 55q0 86 -37 164q-40 90 -123 145q-91 60 -215 60h-397v-1346zM305 799v450h246q106 0 168 -71q57 -63 57 -154q0 -94 -57 -154q-62 -71 -168 -71h-246zM356 252h195q108 0 154 100 q20 44 20 95q-1 17 -3 34q-8 71 -48 117l-12 14q-50 -12 -113 -12h-193v-348zM356 850h195q81 0 131 53q43 49 43 121q0 83 -52 128.5t-122 45.5h-195v-348z" />
<glyph unicode="c" horiz-adv-x="1079" d="M102 444v576q0 127 60 229q59 97 159 150t220 53q174 0 299 -106q137 -125 137 -330v-21h-51v21q0 181 -121 287q-49 47 -119 72.5t-145 25.5q-107 0 -193 -45q-90 -45 -142 -134.5t-52 -205.5v-565q0 -122 53 -211q53 -88 141 -135.5t193 -47.5q102 0 188 45 q91 46 144 135.5t53 213.5v22h51v-22q0 -211 -137 -336q-116 -113 -299 -113q-118 0 -219 55q-102 55 -161 155.5t-59 231.5zM209 444v572q0 146 88.5 239t243.5 93q92 0 166 -39q77 -39 121 -115.5t44 -177.5v-25h-55v25q0 121 -75 199.5t-201 78.5q-128 0 -203.5 -78.5 t-75.5 -199.5v-563q0 -127 75.5 -208t203.5 -81q127 0 202.5 81.5t75.5 207.5v20h53v-22q0 -109 -45 -183q-44 -74 -119 -114.5t-167 -40.5q-149 0 -236.5 90.5t-95.5 240.5zM315 444v576q0 97 59.5 158t166.5 61q101 0 162 -58.5t61 -164.5v-21h-51v21q0 79 -41.5 125.5 t-130.5 46.5q-88 0 -131 -47.5t-43 -124.5v-563q0 -79 43.5 -129t130.5 -50q77 0 124.5 43.5t47.5 135.5v20h51v-22q0 -108 -61.5 -170t-161.5 -62q-108 0 -166 61t-60 164z" />
<glyph unicode="d" horiz-adv-x="1056" d="M102 4v1450h414q103 0 189 -62.5t143 -177.5q106 -202 106 -501q0 -269 -106 -471q-57 -115 -143 -176.5t-189 -61.5h-414zM154 55h362q182 0 287 209q98 186 98 449q0 199 -45 350q-46 160 -134.5 250t-205.5 90h-362v-1348zM207 102v1246h309q167 0 256 -209 q80 -174 80 -430q0 -154 -39 -287q-41 -146 -117 -233t-176 -87h-313zM260 154h256q129 0 209 176q76 183 76 379q0 158 -35 295q-36 137 -100.5 214.5t-149.5 77.5h-256v-1142zM311 205v1042h205q117 0 182 -176q52 -155 52 -362q0 -122 -27 -236q-27 -122 -80 -195 t-123 -73h-209zM360 256h156q84 0 133 141q49 140 49 312q0 207 -49 344q-53 141 -133 141h-156v-938z" />
<glyph unicode="e" horiz-adv-x="1073" d="M102 0v1450h869v-51h-817v-576h53v523h764v-52h-711v-471h51v418h660v-51h-609v-367h609v-53h-817v-719h817v-51h-869zM207 104v613h764v-51h-711v-508h711v-54h-764zM311 209v405h660v-53h-609v-301h609v-51h-660z" />
<glyph unicode="f" horiz-adv-x="999" d="M102 0h54v1401h741v51h-795v-1452zM209 0h51v1294h637v54h-688v-1348zM315 0h52v555h358v51h-358v53h358v52h-358v53h358v51h-358v375h530v53h-582v-1243z" />
<glyph unicode="g" horiz-adv-x="1118" d="M102 453v542q0 124 62 230q61 106 164.5 166.5t230.5 60.5q120 0 227 -61q107 -62 168.5 -167t61.5 -229h-53q0 108 -54 205q-56 93 -148.5 146t-201.5 53q-112 0 -205 -53.5t-147 -147.5q-55 -82 -55 -203v-540q0 -107 55 -201q57 -96 147 -149.5t205 -53.5 q106 0 200 55.5t148 149.5q56 83 56 199v299h-203l-131 4v49h387v-352q0 -120 -62.5 -225t-169.5 -167q-92 -63 -225 -63q-123 0 -227 60t-164 165q-66 104 -66 228zM205 453v542q0 97 49 179q48 81 129 128.5t176 47.5q96 0 176 -47q81 -50 127.5 -131.5t46.5 -176.5h-47 q0 81 -41 152q-42 70 -111.5 110.5t-150.5 40.5q-85 0 -151 -38q-70 -40 -111 -110.5t-41 -154.5v-540q0 -82 41 -150q42 -70 111.5 -110.5t150.5 -40.5t152 41q70 42 110.5 110.5t40.5 149.5v198h-233v52h284l-4 -250q0 -96 -47 -176q-48 -83 -127.5 -130t-175.5 -47 q-94 0 -176 48q-82 46 -130 126.5t-48 176.5zM305 453v542q0 68 35 127t93.5 93t125.5 34q66 0 125 -35q58 -36 91.5 -94t33.5 -125h-53q0 84 -58.5 142.5t-138.5 58.5q-82 0 -141.5 -58.5t-59.5 -142.5v-540q0 -79 60.5 -139t140.5 -60t140.5 59t60.5 140v96h-131v51h180 v-147q0 -67 -33 -123q-34 -59 -92 -93t-125 -34q-103 0 -176 72t-78 176z" />
<glyph unicode="h" horiz-adv-x="1110" d="M102 0v1450h54v-1450h-54zM207 0v1450h55v-1450h-55zM313 0v1450h54v-637h376v637h52v-690h-428v-55h479v745h55v-797h-534v-51h587v848h54v-1450h-54v549h-53v-549h-55v549h-51v-549h-52v549h-376v-549h-54z" />
<glyph unicode="i" horiz-adv-x="464" d="M102 0h52v1452h-52v-1452zM207 0h53v1452h-53v-1452zM311 0h51v1452h-51v-1452z" />
<glyph unicode="j" horiz-adv-x="1118" d="M102 473l52 4q3 -196 129 -319q116 -107 276 -107q164 0 277 107q127 121 127 319v975h53v-979q0 -217 -146 -354q-122 -119 -311 -119t-311 119q-146 140 -146 354zM205 477h51q7 -152 89 -235.5t214 -83.5t214 83.5t89 235.5v975h51l-2 -907l2 -68q-6 -175 -104 -275 t-250 -100q-139 0 -240 93q-108 95 -114 282zM311 477h51q0 -102 54 -159.5t143 -57.5q92 0 145.5 56.5t53.5 160.5v975h51v-975q-6 -126 -75 -197t-175 -71q-101 0 -170 63q-78 72 -78 205z" />
<glyph unicode="k" horiz-adv-x="1116" d="M102 0v1458h54v-545l53 58v487h53v-432l51 55v377h54v-317l299 317h67l-577 -624v-834h-54zM209 0v819l18 21l574 618h73l-612 -659v-799h-53zM313 0v782l41 41l584 635h72l-643 -696v-60l647 -702h-70l-577 627v-76l503 -551h-69l-434 467v-76l360 -391h-70l-290 315 v-315h-54z" />
<glyph unicode="l" horiz-adv-x="1015" d="M102 0v1452h52v-1452h-52zM207 0v1452h51v-1452h-51zM311 0v1452h54v-1192h548v-51h-548v-51h548v-56h-548v-51h548v-51h-602z" />
<glyph unicode="m" horiz-adv-x="1337" d="M102 1448l2 -1448h54l-4 1448h-52zM207 1448l2 -1448h53l-4 1448h-51zM311 1448l2 -1448h52v571l167 -571h58l2 4l104 363l273 948q4 12 4 14l2 -188l-250 -865l-53 -182l-27 -94h53l2 6l54 180l221 768v-188l-193 -670l-28 -96h53l2 6l166 574v-580h51v1448h-72 l-288 -1002l-301 1002h-54zM365 752v174l221 -752l-25 -90zM365 1102v172l274 -920l-27 -90zM1079 0h51v1448h-51v-1448zM1184 0h51v1448h-51v-1448z" />
<glyph unicode="n" horiz-adv-x="1122" d="M102 0v1456h52v-1456h-52zM205 0v1456h53v-1456h-53zM311 0v1456h56l387 -838v836h55v-1454h-55l-387 831v-831h-56zM367 956l387 -835v129l-387 833v-127zM367 1202l387 -829v123l-387 833v-127zM860 0v1454h55v-1454h-55zM967 0v1454h53v-1454h-53z" />
<glyph unicode="o" horiz-adv-x="1120" d="M102 481v488q0 229 144 358q126 123 315 123q187 0 316 -123q141 -132 141 -358v-494q0 -224 -141 -356q-122 -119 -316 -119q-196 0 -315 119q-144 135 -144 362zM154 481q0 -137 57 -233q55 -95 150.5 -146t199.5 -51q110 0 199 51q95 51 151 149.5t56 229.5v488 q0 132 -56 235q-55 96 -148 145.5t-202 49.5q-105 0 -197 -50t-151 -143q-59 -103 -59 -237v-488zM205 481v488q0 117 49 202q47 84 127 128t180 44q141 0 244 -92q110 -101 110 -282v-494q0 -116 -47 -199q-49 -85 -129 -130.5t-178 -45.5t-178 45q-83 45 -130.5 133 t-47.5 203zM258 481q0 -152 85 -239.5t218 -87.5q132 0 216.5 87.5t84.5 239.5v488q0 151 -82.5 237t-218.5 86q-133 0 -218 -87t-85 -236v-488zM311 481v488q0 130 69 201t181 71q105 0 174 -63q78 -78 78 -209v-494q0 -123 -70.5 -196.5t-181.5 -73.5q-108 0 -172 67 q-78 72 -78 209zM362 481q0 -108 53 -165.5t146 -57.5q87 0 144 60t57 163v488q0 109 -64 170q-58 49 -137 49q-89 0 -144 -58t-55 -161v-488z" />
<glyph unicode="p" horiz-adv-x="1169" d="M102 0v987q3 127 70 234t177 169t237 62q130 0 241 -63q112 -65 176 -175.5t64 -242.5q0 -134 -63 -242q-65 -113 -176.5 -178.5t-241.5 -65.5q-121 0 -221 56v-541h-54v975q1 110 81.5 187t193.5 77q71 0 135 -37t100.5 -98.5t36.5 -132.5q0 -73 -37 -137 q-37 -63 -100 -100.5t-135 -37.5q-68 0 -126.5 29t-94.5 82v-78q92 -86 221 -86q88 0 162 45t118.5 120.5t44.5 162.5q0 86 -43 159q-45 74 -120.5 118t-161.5 44q-89 0 -162 -43q-76 -45 -121 -119t-45 -159v-971h-51v985q3 97 57 182q53 84 138.5 132.5t183.5 48.5 q102 0 187 -50t140 -139q50 -95 50 -188q0 -103 -52 -191q-51 -88 -139 -140t-186 -52q-121 0 -221 74v-64q104 -61 221 -61q113 0 213 59q99 59 158 160t59 215q0 115 -58 213q-59 99 -159.5 158t-212.5 59q-115 0 -213 -58q-99 -59 -158 -159.5t-59 -212.5v-971h-54z M365 967q0 -88 65.5 -152.5t155.5 -64.5q88 0 152.5 65.5t64.5 155.5q0 91 -63 154t-154 63q-90 0 -155.5 -64.5t-65.5 -152.5v-4z" />
<glyph unicode="q" horiz-adv-x="1212" d="M102 475v500q0 219 142 352q125 119 309 119q186 0 311 -119q137 -128 140 -344v-514q0 -83 -21 -154l127 -315h-55l-99 246q-2 -4 -12 -23t-16 -28l78 -195h-56l-59 147l-21 -20l-4 -4l-14 -14l45 -109h-55l-31 78l-25 -17q-106 -61 -233 -61q-181 0 -309 119 q-142 136 -142 356zM154 475q0 -105 35 -188.5t92.5 -133.5t127 -76t144.5 -26q118 0 215 60q24 14 43 30q25 21 39 37q16 19 35 47q69 101 69 250v498q0 105 -35 188.5t-93.5 133.5t-128 76t-144.5 26t-144.5 -26t-127 -76t-92.5 -133.5t-35 -188.5v-498zM205 475v500 q0 176 108 278q99 93 240 93q143 0 242 -93q102 -99 108 -270v-514q-3 -106 -43 -184q-11 -25 -33 -54q-16 -23 -32 -36l-4 -5q-9 -8 -43 -32q-88 -56 -195 -56q-141 0 -240 93q-108 99 -108 280zM256 475q0 -155 92 -244q80 -77 205 -77q95 0 174 53q21 14 31 24l10 11 q84 84 84 233v498q0 156 -94 244q-83 77 -205 77t-205 -77q-92 -89 -92 -244v-498zM307 475v500q0 132 76 205q69 63 170 63q104 0 170 -63q75 -69 78 -197v-514q-3 -115 -53 -176q-8 -10 -23 -25q-8 -8 -16 -14q-65 -49 -156 -49q-101 0 -170 63q-76 73 -76 207zM358 475 q0 -113 60 -170q52 -49 135 -49q86 0 135 49q62 56 62 170v498q0 112 -62 168q-51 51 -135 51q-81 0 -135 -51q-60 -57 -60 -168v-498z" />
<glyph unicode="r" horiz-adv-x="1134" d="M102 0v1450h424q126 0 230.5 -55.5t165.5 -157.5q61 -104 61 -244v-43q0 -214 -147 -340q-63 -51 -138 -82l334 -528h-61l-447 709h-157v-52h129l411 -657h-59l-383 602h-98v-51h69l348 -551h-63l-313 500h-41v-500h-52v1241h211q47 0 90 -14.5t79 -43.5t57.5 -78 t21.5 -112l-2 -43q0 -97 -50.5 -157.5t-139.5 -79.5l28 -45q97 21 157 95.5t60 186.5v43q0 131 -81.5 215t-219.5 84h-264v-1292h-53v1343h317q98 0 178 -42t127 -119q48 -82 48 -189v-43q0 -126 -65.5 -211.5t-174.5 -117.5l31 -46q123 43 191.5 139.5t68.5 235.5v43 q0 126 -55 219.5t-154 141.5q-91 45 -195 45h-368v-1399h-56zM367 760h153q101 0 150 52.5t49 137.5l2 43q0 99 -53.5 147t-141.5 48h-159v-428z" />
<glyph unicode="s" horiz-adv-x="1175" d="M102 1020q0 99 41 197q43 110 130 171.5t200 61.5h201q112 0 200 -61q83 -59 126.5 -159t43.5 -210h-55q0 96 -38.5 184.5t-106.5 138.5q-79 52 -172 52h-199q-93 0 -166 -52t-110 -145q-39 -79 -39 -178q0 -101 39 -178q37 -97 108 -149t168 -52h229q85 0 123 -92 q27 -56 27 -119q0 -54 -27 -117q-35 -96 -123 -96h-204q-83 0 -123 94q-25 67 -25 119l56 2q0 -55 20 -102q13 -34 29.5 -46t46.5 -12h200q27 0 43 13q18 13 35 53t17 92q0 58 -21 98q-18 36 -31.5 47t-42.5 11h-229q-113 0 -200 62.5t-130 174.5q-41 90 -41 197zM129 430 h55q0 -91 37 -178q38 -94 111.5 -145.5t169.5 -51.5h200q94 0 167 52t110 145q39 79 39 178q0 102 -39 176q-37 97 -108.5 149t-168.5 52h-229q-86 0 -123 94q-26 51 -26 115q0 31 9.5 70.5t16.5 52.5q40 94 123 94h199q76 0 113.5 -63t37.5 -154h-55q0 46 -20 102 q-22 60 -74 60h-201q-52 0 -74 -60q-20 -39 -20 -98q0 -44 18 -90q27 -72 76 -72h229q113 0 200 -60.5t130 -170.5q41 -95 41 -197q0 -101 -41 -199q-43 -110 -130 -170.5t-200 -60.5h-200q-116 0 -202.5 60.5t-129.5 170.5q-41 98 -41 199zM213 1020q0 73 33 158 q64 161 227 161h201q80 0 140 -42t89 -119q31 -91 31 -158h-55q0 72 -31 135q-47 133 -176 133h-199q-123 0 -176 -133q-29 -59 -29 -135q0 -41 9.5 -83t31 -86t64 -71.5t100.5 -27.5h229q164 0 228 -166q16 -35 24.5 -81.5t8.5 -74.5q0 -76 -33 -158q-64 -166 -228 -166 h-200q-166 3 -230 166q-32 79 -32 158h55q0 -78 29 -137q52 -131 178 -131h200q125 0 177 131q28 60 28 137q0 79 -28 139q-53 127 -177 127h-229q-163 0 -227 166q-33 79 -33 158z" />
<glyph unicode="t" horiz-adv-x="1208" d="M102 1192v51h1004v-51h-369v-1192h-51v1192h-53v-1192h-51v1192h-54v-1192h-51v1192h-375zM102 1296v54h1004v-54h-1004zM102 1401v51h1004v-51h-1004z" />
<glyph unicode="u" horiz-adv-x="1134" d="M102 483v967h54v-967q0 -130 59 -233q57 -97 150.5 -148t199.5 -51q107 0 202.5 51t154.5 144q55 101 55 237v967h55v-969q0 -222 -147 -360q-134 -121 -320 -121q-184 0 -317 121q-146 137 -146 362zM209 483v967h51v-967q0 -151 86 -239t219 -88q134 0 219.5 87.5 t85.5 239.5v967h56v-969q0 -115 -47 -198q-49 -86 -131.5 -132.5t-182.5 -46.5q-141 0 -248 93q-108 105 -108 286zM313 483v967h52v-967q0 -106 55 -164.5t145 -58.5q94 0 147.5 57.5t53.5 165.5v967h53v-969q0 -136 -80 -207q-65 -65 -174 -65q-97 0 -174 65 q-78 78 -78 209z" />
<glyph unicode="v" horiz-adv-x="1142" d="M102 1452h54l344 -1452h-54zM209 1452h51l344 -1452h-53zM311 1452h56l208 -895l205 895h51l-227 -1006l8 -47l19 -67l256 1120h47l-279 -1231l7 -24l20 -91l307 1346h51l-329 -1452h-52l-24 86l-4 25l-21 90l-6 22l-16 70l-13 43l-12 67l-12 43z" />
<glyph unicode="w" horiz-adv-x="1343" d="M102 0v1450h54v-1450h-54zM207 0v1450h51v-1450h-51zM313 0v1450h52v-657l153 436h55l-208 -596v-158l264 754h55l-319 -914v-159l374 1073h90l152 -436v657h51v-1450h-51l-309 879l-305 -879h-54zM700 961l281 -805v159l-250 725zM756 1118l225 -643v158l-195 565z M1085 0v1450h52v-1450h-52zM1190 0v1450h51v-1450h-51z" />
<glyph unicode="x" horiz-adv-x="1189" d="M102 1452h60l313 -672l29 64l-285 608h62l256 -545l28 64l-227 481h61l195 -418l199 418h57l-227 -481l-86 -191l-371 -780h-57l337 721zM225 0l340 721l29 59l57 127l256 545h62l-285 -608l-33 -64l-364 -780h-62zM344 0l340 721l29 59l313 672h61l-346 -731l338 -721 h-57l-309 655l-29 -63l279 -592h-60l-252 532l-28 -65l221 -467h-60l-190 403l-188 -403h-62z" />
<glyph unicode="y" horiz-adv-x="1116" d="M102 1450l334 -756v-694h53v711l-329 739h-58zM217 1450l324 -735v-715h53v729l-320 721h-57zM332 1450l313 -713v-737h53v735l316 715h-58l-284 -641l-27 63l254 578h-57l-226 -514l-28 65l196 449h-57l-168 -385l-170 385h-57z" />
<glyph unicode="z" horiz-adv-x="1126" d="M102 0v51h922v-51h-922zM102 106v52h922v-52h-922zM102 209v51l615 934h-615v51h922v-51l-616 -934h616v-51h-922zM102 1294v54h922v-54h-922zM102 1401v51h922v-51h-922zM164 260h59l617 934h-62zM285 260h61l617 934h-62z" />
<glyph unicode="&#xa1;" />
<glyph unicode="&#xb7;" />
<glyph unicode="&#xbf;" />
<glyph unicode="&#x2000;" horiz-adv-x="729" />
<glyph unicode="&#x2001;" horiz-adv-x="1458" />
<glyph unicode="&#x2002;" horiz-adv-x="729" />
<glyph unicode="&#x2003;" horiz-adv-x="1458" />
<glyph unicode="&#x2004;" horiz-adv-x="486" />
<glyph unicode="&#x2005;" horiz-adv-x="364" />
<glyph unicode="&#x2006;" horiz-adv-x="243" />
<glyph unicode="&#x2007;" horiz-adv-x="243" />
<glyph unicode="&#x2008;" horiz-adv-x="182" />
<glyph unicode="&#x2009;" horiz-adv-x="291" />
<glyph unicode="&#x200a;" horiz-adv-x="81" />
<glyph unicode="&#x2022;" />
<glyph unicode="&#x2026;" />
<glyph unicode="&#x202f;" horiz-adv-x="291" />
<glyph unicode="&#x205f;" horiz-adv-x="364" />
<glyph unicode="&#x25fc;" horiz-adv-x="1454" d="M0 0v1454h1454v-1454h-1454z" />
</font>
</defs>
</svg>
